<svg enable-background="new 0 0 190.656 161.043" height="161.043" viewBox="0 0 190.656 161.043" width="190.656" xmlns="http://www.w3.org/2000/svg"><g fill="#fff"><path d="m24.098 142.828c1.283-1.869 1.926-4.056 1.926-6.559-.029-3.83-1.189-6.627-3.48-8.388-2.273-1.747-5.209-2.62-8.811-2.62h-13.733v35.781h9.264v-13.764h.115l8.594 13.764h11.367l-10.887-14.67c2.479-.539 4.361-1.721 5.645-3.544zm-8.018-3.707c-.373.604-.877 1.062-1.512 1.371-.637.327-1.318.535-2.047.63-.76.125-1.543.185-2.35.185h-.907v-8.955h.908 1.209c.373 0 .752.031 1.141.094.729.124 1.41.348 2.047.674.635.277 1.139.721 1.512 1.325.387.604.58 1.403.58 2.396-.001.946-.194 1.706-.581 2.28z"/><path d="m32.189 161.043h19.987v-7.877h-10.723v-6.166h10.164v-7.877h-10.164v-5.984h10.723v-7.877h-19.987z"/><path d="m83.938 147.146h-.088l-16.254-21.884h-9.266v35.781h9.266v-21.93h.111l16.231 21.93h9.265v-35.781h-9.265z"/><path d="m112.711 125.262h-12.822v35.781h12.822c4.988-.062 9.158-1.8 12.508-5.215 3.396-3.292 5.123-7.515 5.186-12.675-.062-5.162-1.789-9.418-5.186-12.771-3.35-3.352-7.52-5.058-12.508-5.12zm5.422 25.492c-1.881 1.639-4.201 2.443-6.955 2.412h-2.025v-20.027h2.113c2.902.031 5.252.883 7.047 2.55 1.791 1.716 2.703 4.204 2.734 7.465-.061 3.446-1.029 5.977-2.914 7.6z"/><path d="m135.172 161.043h19.986v-7.877h-10.722v-6.166h10.162v-7.877h-10.162v-5.984h10.722v-7.877h-19.986z"/><path d="m185.41 142.828c1.285-1.869 1.926-4.056 1.926-6.559-.031-3.83-1.189-6.627-3.479-8.388-2.273-1.747-5.213-2.62-8.811-2.62h-13.734v35.781h9.266v-13.764h.113l8.596 13.764h11.367l-10.887-14.67c2.477-.539 4.358-1.721 5.643-3.544zm-8.017-3.707c-.371.604-.875 1.062-1.512 1.371-.637.327-1.318.535-2.045.63-.762.125-1.545.185-2.35.185h-.908v-8.955h.908 1.209c.371 0 .752.031 1.141.094.727.124 1.408.348 2.045.674.637.277 1.141.721 1.512 1.325.389.604.582 1.403.582 2.396 0 .946-.194 1.706-.582 2.28z"/><path d="m65.707 98.688c5.768-6.799 8.691-15.148 8.771-25.051-.08-9.943-3.004-18.293-8.771-25.049-5.807-6.883-13.488-10.412-23.043-10.58-3.631 0-7.18.68-10.646 2.039-3.469 1.4-6.492 3.633-9.072 6.693v-44.933h-22.448v105.357h22.447v-7.453h.242c2.258 3.227 5.082 5.629 8.469 7.199 3.387 1.656 6.975 2.484 10.766 2.484 9.637-.169 17.4-3.738 23.285-10.706zm-36.686-14.329c-2.549-2.801-3.824-6.32-3.824-10.562 0-4.285 1.275-7.848 3.824-10.689 2.51-2.885 6.092-4.369 10.748-4.455 4.615.086 8.217 1.57 10.807 4.455 2.471 2.842 3.705 6.404 3.705 10.689 0 4.242-1.234 7.762-3.705 10.562-2.59 2.928-6.191 4.391-10.807 4.391-4.656 0-8.238-1.463-10.748-4.391z"/><path d="m83.854 43.174h22.447v63.99h-22.447z"/><path d="m92.804 27.634c.062.017.107.043.173.058 10.721 2.443 34.342 15.455 29.419 30.088-2.256 4.697-3.521 9.959-3.521 15.518 0 19.822 16.068 35.891 35.891 35.891 19.82 0 35.891-16.068 35.891-35.891 0-19.82-16.07-35.891-35.891-35.891-4.073 0-7.984.688-11.633 1.938l.031-.028c-19.125 6.125-30.479-10.082-33.984-27.016-.01-.045-.029-.075-.04-.117-.864-6.869-6.711-12.184-13.814-12.184-7.697 0-13.938 6.238-13.938 13.936.001 6.835 4.924 12.509 11.416 13.698zm61.452 32.089c7.873 0 14.256 6.383 14.256 14.254s-6.383 14.254-14.256 14.254c-7.871 0-14.254-6.383-14.254-14.254s6.383-14.254 14.254-14.254z"/></g></svg>